<svg id="icon_line" xmlns="http://www.w3.org/2000/svg" width="21.026" height="20.034" viewBox="0 0 21.026 20.034">
  <path id="パス_12" data-name="パス 12" d="M21.026,8.531C21.026,3.827,16.31,0,10.513,0S0,3.827,0,8.531c0,4.217,3.74,7.749,8.792,8.417.342.074.808.226.926.519a2.157,2.157,0,0,1,.034.95s-.123.742-.15.9c-.046.266-.211,1.039.911.567a33.941,33.941,0,0,0,8.26-6.1h0a7.591,7.591,0,0,0,2.254-5.249" fill="#fff"/>
  <g id="グループ_721" data-name="グループ 721" transform="translate(3.449 6.258)">
    <path id="パス_13" data-name="パス 13" d="M31.84,26.008H31.1a.2.2,0,0,0-.2.2v4.581a.2.2,0,0,0,.2.2h.738a.2.2,0,0,0,.2-.2V26.213a.2.2,0,0,0-.2-.2" transform="translate(-26.912 -26.008)" fill="#00b900"/>
    <path id="パス_14" data-name="パス 14" d="M42.8,26.007h-.737a.2.2,0,0,0-.2.2v2.721l-2.1-2.835-.016-.021h0l-.012-.013,0,0-.011-.009-.005,0-.011-.007-.006,0-.011-.006-.006,0-.012-.005-.007,0-.012,0-.007,0-.012,0h-.775a.2.2,0,0,0-.2.2v4.581a.2.2,0,0,0,.2.2h.737a.2.2,0,0,0,.205-.2v-2.72l2.1,2.839a.2.2,0,0,0,.052.051l0,0,.013.008.006,0,.01,0,.01,0,.006,0,.014,0h0a.2.2,0,0,0,.052.007H42.8a.2.2,0,0,0,.2-.2V26.212a.2.2,0,0,0-.2-.2" transform="translate(-32.793 -26.007)" fill="#00b900"/>
    <path id="パス_15" data-name="パス 15" d="M17.483,29.851h-2V26.213a.2.2,0,0,0-.2-.2h-.738a.2.2,0,0,0-.2.2v4.58h0a.2.2,0,0,0,.057.141l0,0,0,0a.2.2,0,0,0,.141.057h2.946a.2.2,0,0,0,.2-.2v-.737a.2.2,0,0,0-.2-.2" transform="translate(-14.333 -26.008)" fill="#00b900"/>
    <path id="パス_16" data-name="パス 16" d="M62.888,27.155a.2.2,0,0,0,.2-.2v-.737a.2.2,0,0,0-.2-.205H59.943a.2.2,0,0,0-.142.058l0,0,0,0a.2.2,0,0,0-.057.141h0v4.58h0a.2.2,0,0,0,.057.141l0,0,0,0a.2.2,0,0,0,.141.057h2.946a.2.2,0,0,0,.2-.2v-.738a.2.2,0,0,0-.2-.2h-2v-.774h2a.2.2,0,0,0,.2-.2v-.737a.2.2,0,0,0-.2-.205h-2v-.774h2Z" transform="translate(-48.813 -26.008)" fill="#00b900"/>
  </g>
</svg>
