<!--?xml version="1.0" encoding="utf-8"?-->
<!-- Generator: Adobe Illustrator 18.1.1, SVG Export Plug-In . SVG Version: 6.00 Build 0)  -->

<svg version="1.1" id="_x32_" xmlns="http://www.w3.org/2000/svg" xmlns:xlink="http://www.w3.org/1999/xlink" x="0px" y="0px" viewBox="0 0 512 512" style="width: 128px; height: 128px; opacity: 1;" xml:space="preserve">
<style type="text/css">
	.st0{fill:#4B4B4B;}
</style>
<g>
	<path class="st0" d="M429.343,0H226.509v139.052c0,15.343-12.48,27.832-27.818,27.832H59.948V489.3c0,12.514,10.182,22.7,22.7,22.7
		h346.696c12.522,0,22.708-10.185,22.708-22.7V22.683C452.052,10.176,441.865,0,429.343,0z M383.185,434.225H128.811v-24.304
		h254.374V434.225z M383.185,335.655H128.811v-24.303h254.374V335.655z M383.185,237.095H128.811v-24.304h254.374V237.095z
		 M383.185,138.534H263.287v-24.303h119.898V138.534z" style="fill: rgb(255, 255, 255);"></path>
	<path class="st0" d="M200.587,123.45V6.865L66.499,140.958h116.577C195.676,140.958,200.587,136.051,200.587,123.45z" style="fill: rgb(255, 255, 255);"></path>
</g>
</svg>
