<svg xmlns="http://www.w3.org/2000/svg" xmlns:xlink="http://www.w3.org/1999/xlink" width="20" height="20" viewBox="0 0 20 20">
  <defs>
    <clipPath id="clip-path">
      <rect id="長方形_1083" data-name="長方形 1083" width="20" height="20" transform="translate(41.5 10)" fill="#fff"/>
    </clipPath>
  </defs>
  <g id="icon_tw" transform="translate(-41.5 -10)" clip-path="url(#clip-path)">
    <path id="twitter" d="M17.944,6.866c.013.178.013.355.013.533A11.583,11.583,0,0,1,6.294,19.061,11.583,11.583,0,0,1,0,17.221a8.48,8.48,0,0,0,.99.051A8.209,8.209,0,0,0,6.079,15.52a4.106,4.106,0,0,1-3.833-2.843,5.169,5.169,0,0,0,.774.063A4.335,4.335,0,0,0,4.1,12.6,4.1,4.1,0,0,1,.812,8.579V8.528a4.128,4.128,0,0,0,1.853.52A4.105,4.105,0,0,1,1.4,3.566,11.651,11.651,0,0,0,9.848,7.855a4.627,4.627,0,0,1-.1-.939,4.1,4.1,0,0,1,7.094-2.8,8.07,8.07,0,0,0,2.6-.99,4.088,4.088,0,0,1-1.8,2.259A8.217,8.217,0,0,0,20,4.746a8.811,8.811,0,0,1-2.056,2.119Z" transform="translate(41.5 9.061)" fill="#fff"/>
  </g>
</svg>
